<svg width="103" height="25" viewBox="0 0 103 25" fill="none" xmlns="http://www.w3.org/2000/svg">
<path d="M23.8838 1.38936V24.6094H19.3388V9.31685L11.9419 19.5675L4.545 9.31685V24.6094H0V1.38936H4.34625L11.9419 12.3694L19.5375 1.38936H23.8838Z" fill="black"/>
<path d="M28.3125 1.38936H32.9231V24.6094H28.3125V1.38936Z" fill="black"/>
<path d="M58.5094 13.0012C58.5094 19.7024 54.2306 24.6112 47.3963 24.6112H37.3125V1.39119H47.3963C54.1631 1.39119 58.5094 6.16869 58.5094 13.0012ZM53.9325 12.9018C53.9325 8.48994 51.2794 5.47119 47.2988 5.47119H41.8256V20.4974H47.2988C51.2794 20.4974 53.9325 17.3793 53.9325 12.9018Z" fill="black"/>
<path d="M78.1933 -9.15527e-05V4.17928H64.4739V-9.15527e-05H78.1933Z" fill="#3B82F6"/>
<path d="M66.8138 24.6112L71.3175 16.0462L75.8213 24.6112H80.7431L71.31 5.37744L61.9163 24.6112H66.8138Z" fill="black"/>
<path d="M97.6846 8.24874C97.5961 7.35714 97.2167 6.66449 96.5461 6.17079C95.8756 5.67709 94.9656 5.43025 93.8161 5.43025C93.035 5.43025 92.3755 5.54078 91.8376 5.76183C91.2997 5.97552 90.887 6.27395 90.5997 6.65712C90.3196 7.04029 90.1796 7.47504 90.1796 7.96136C90.1649 8.36664 90.2496 8.72033 90.4339 9.02244C90.6254 9.32456 90.887 9.58614 91.2186 9.8072C91.5502 10.0209 91.9334 10.2088 92.3681 10.3709C92.8029 10.5256 93.2671 10.6583 93.7608 10.7688L95.7945 11.2551C96.7819 11.4762 97.6883 11.7709 98.5135 12.1394C99.3388 12.5078 100.054 12.961 100.658 13.4989C101.262 14.0368 101.73 14.6705 102.062 15.4C102.4 16.1295 102.574 16.9658 102.581 17.909C102.574 19.2943 102.22 20.4954 101.52 21.5122C100.827 22.5217 99.8252 23.3065 98.5135 23.8665C97.2093 24.4191 95.6361 24.6955 93.7939 24.6955C91.9665 24.6955 90.3749 24.4155 89.0191 23.8555C87.6706 23.2954 86.6169 22.4665 85.858 21.3685C85.1064 20.2633 84.7121 18.8964 84.6753 17.2679H89.3065C89.358 18.0269 89.5754 18.6606 89.9586 19.169C90.3491 19.6701 90.8686 20.0496 91.517 20.3075C92.1729 20.558 92.9134 20.6833 93.7387 20.6833C94.5492 20.6833 95.2529 20.5654 95.8498 20.3296C96.454 20.0938 96.9219 19.7659 97.2535 19.3459C97.5851 18.9259 97.7509 18.4432 97.7509 17.8979C97.7509 17.3895 97.5998 16.9621 97.2977 16.6158C97.003 16.2695 96.5682 15.9747 95.9935 15.7316C95.4261 15.4884 94.7298 15.2673 93.9045 15.0684L91.4397 14.4494C89.5312 13.9852 88.0243 13.2594 86.919 12.272C85.8137 11.2846 85.2648 9.95457 85.2722 8.2819C85.2648 6.91134 85.6295 5.71394 86.3664 4.6897C87.1106 3.66547 88.1312 2.86597 89.428 2.29122C90.7249 1.71647 92.1986 1.42909 93.8492 1.42909C95.5293 1.42909 96.9956 1.71647 98.2483 2.29122C99.5083 2.86597 100.488 3.66547 101.188 4.6897C101.888 5.71394 102.249 6.90028 102.272 8.24874H97.6846Z" fill="black"/>
</svg>
