<svg width="60" height="60" viewBox="0 0 60 60" fill="none" xmlns="http://www.w3.org/2000/svg">
<path d="M50 10.2637C50 10.2637 39.5899 8.46475 36 14.2637C33.3278 18.5804 37 23.2638 37 23.2638M50 10.2637L37 23.2638M50 10.2637C50 10.2637 51.799 20.6739 46 24.2638C41.6834 26.936 37 23.2638 37 23.2638M37 23.2638L34 26.2638" stroke="#3B82F6" stroke-width="4" stroke-linecap="round" stroke-linejoin="round"/>
<path d="M37 37.2637L34 34.2637M37 37.2637C37 37.2637 33.3278 41.9471 36 46.2637C39.5899 52.0627 50 50.2637 50 50.2637M37 37.2637L50 50.2637M37 37.2637C37 37.2637 41.6834 33.5915 46 36.2637C51.799 39.8536 50 50.2637 50 50.2637" stroke="#3F3F46" stroke-width="4" stroke-linecap="round" stroke-linejoin="round"/>
<path d="M23.2638 23.2638L26.2638 26.2638M23.2638 23.2638C23.2638 23.2638 26.936 18.5804 24.2638 14.2637C20.6739 8.46475 10.2637 10.2637 10.2637 10.2637M23.2638 23.2638L10.2637 10.2637M23.2638 23.2638C23.2638 23.2638 18.5804 26.936 14.2637 24.2638C8.46475 20.6739 10.2637 10.2637 10.2637 10.2637" stroke="#A1A1AA" stroke-width="4" stroke-linecap="round" stroke-linejoin="round"/>
<path d="M23.2638 37.2637L26.2638 34.2637M23.2638 37.2637C23.2638 37.2637 26.936 41.9471 24.2638 46.2637C20.6739 52.0627 10.2637 50.2637 10.2637 50.2637M23.2638 37.2637L10.2637 50.2637M23.2638 37.2637C23.2638 37.2637 18.5804 33.5915 14.2637 36.2637C8.46475 39.8536 10.2637 50.2637 10.2637 50.2637" stroke="#71717A" stroke-width="4" stroke-linecap="round" stroke-linejoin="round"/>
</svg>
