<svg width="91" height="25" viewBox="0 0 91 25" fill="none" xmlns="http://www.w3.org/2000/svg">
<g clip-path="url(#clip0_3337_9842)">
<path d="M26.3053 6.88905V9.86222H29.7861V21.1748H33.2669V9.93474H36.095L37.074 6.88905H26.3053ZM54.7861 6.88905V9.86222H58.2669V21.1748H61.7476V9.93474H64.5758L65.5547 6.88905H54.7861ZM37.7085 8.57505C37.7085 7.65047 38.4699 6.88905 39.4126 6.88905C40.3553 6.88905 41.1167 7.65047 41.1167 8.57505C41.1167 9.49964 40.3553 10.2611 39.4126 10.2611C38.4699 10.2611 37.7085 9.51777 37.7085 8.57505ZM37.7085 11.4757H41.0986V21.1929H37.7085V11.4757ZM42.5671 6.88905V21.1748H45.9753V17.4946L47.0268 16.5337L50.3445 21.2654H53.9884L49.2204 14.3582L53.517 10.1885H49.3836L45.9935 13.5606V6.88905H42.5671ZM79.2241 6.88905V21.1748H82.6323V17.4946L83.6838 16.5337L87.0014 21.2654H90.6454L85.8774 14.3582L90.174 10.1885H86.0406L82.6323 13.5606V6.88905H79.2241ZM71.3017 21.2654C74.5649 21.2654 77.2117 18.6367 77.2117 15.4097C77.2117 12.1646 74.5649 9.55402 71.3017 9.55402H71.2292C67.9659 9.55402 65.3191 12.1827 65.3191 15.4097C65.3191 18.6367 67.9659 21.2654 71.2292 21.2654H71.3017ZM68.3829 15.4097C68.3829 13.8325 69.6701 12.5635 71.2654 12.5635C72.8426 12.5635 74.1298 13.8325 74.1298 15.4097C74.1298 16.9869 72.8426 18.256 71.2654 18.256C69.6701 18.256 68.3829 16.9869 68.3829 15.4097ZM21.3923 10.116C21.1929 10.1342 20.9753 10.1523 20.7759 10.1523C18.5279 10.1523 16.4249 9.01015 15.1922 7.14286V17.4039C15.1922 21.5917 11.7839 25 7.59608 25C3.40827 25 0 21.6099 0 17.4039C0 13.198 3.40827 9.80783 7.59608 9.80783C7.75925 9.80783 7.90428 9.82596 8.06744 9.82596V13.5606C7.90428 13.5424 7.75925 13.5062 7.59608 13.5062C5.45685 13.5062 3.71646 15.2466 3.71646 17.3858C3.71646 19.525 5.45685 21.2654 7.59608 21.2654C9.73532 21.2654 11.6207 19.5794 11.6207 17.4402L11.6751 0H15.2647C15.591 3.20885 18.1653 5.71066 21.3923 5.94634V10.116Z" fill="black" fill-opacity="0.5"/>
</g>
<defs>
<clipPath id="clip0_3337_9842">
<rect width="90.625" height="25" fill="white"/>
</clipPath>
</defs>
</svg>
